<svg xmlns="http://www.w3.org/2000/svg" viewBox="0 0 132.78 28.62"><defs><style>.a{fill:#000000;}</style></defs><title>packager</title><path class="a" d="M14.44,3.16Q16.65,5,16.65,8.92t-2.27,5.69q-2.27,1.8-6.92,1.8H4.68v5.85H0v-21H7.41Q12.24,1.29,14.44,3.16ZM11,11.41a4,4,0,0,0,.84-2.76,2.92,2.92,0,0,0-1.1-2.58,6,6,0,0,0-3.4-.77H4.68v7.05H7.83Q10.17,12.36,11,11.41Z"/><path class="a" d="M32.55,22.26H28.32v-2A5.3,5.3,0,0,1,24,22.5,6.4,6.4,0,0,1,19.71,21a5,5,0,0,1-1.74-4,4.19,4.19,0,0,1,1.8-3.71,8.61,8.61,0,0,1,4.92-1.23H28V12q0-2.58-2.73-2.58a7.39,7.39,0,0,0-2.48.46,8,8,0,0,0-2.2,1.16l-2-2.91a12,12,0,0,1,7.26-2.31,7.51,7.51,0,0,1,4.8,1.47A5.57,5.57,0,0,1,32.55,12V22.26ZM28,16.11V15.33H25.2q-2.7,0-2.7,1.68a1.54,1.54,0,0,0,.65,1.33,3.12,3.12,0,0,0,1.84.46,3.28,3.28,0,0,0,2.12-.74A2.39,2.39,0,0,0,28,16.11Z"/><path class="a" d="M43.65,18.51a5.16,5.16,0,0,0,4-2.25l2.67,3a9.28,9.28,0,0,1-6.75,3.24,8.75,8.75,0,0,1-6.13-2.3,7.75,7.75,0,0,1-2.5-6,7.81,7.81,0,0,1,2.53-6,8.6,8.6,0,0,1,6-2.33,9.38,9.38,0,0,1,3.52.72A8.92,8.92,0,0,1,50.19,8.7l-2.34,3.06a5.33,5.33,0,0,0-1.9-1.44,5.38,5.38,0,0,0-2.23-.51,4.38,4.38,0,0,0-3,1.16,4.11,4.11,0,0,0-1.27,3.21,4.06,4.06,0,0,0,1.27,3.19A4.33,4.33,0,0,0,43.65,18.51Z"/><path class="a" d="M57.12,22.26h-4.5V0h4.5V11.43l5-5.34H67.8l-6.15,6.54L68,22.26H62.7l-4.11-6.18-1.47,1.53v4.65Z"/><path class="a" d="M83,22.26H78.78v-2a5.3,5.3,0,0,1-4.3,2.19A6.4,6.4,0,0,1,70.17,21a5,5,0,0,1-1.74-4,4.19,4.19,0,0,1,1.8-3.71,8.61,8.61,0,0,1,4.92-1.23h3.36V12q0-2.58-2.73-2.58a7.39,7.39,0,0,0-2.48.46,8,8,0,0,0-2.2,1.16l-2-2.91a12,12,0,0,1,7.26-2.31,7.51,7.51,0,0,1,4.8,1.47A5.57,5.57,0,0,1,83,12V22.26Zm-4.53-6.15V15.33H75.66Q73,15.33,73,17a1.54,1.54,0,0,0,.65,1.33,3.12,3.12,0,0,0,1.84.46,3.28,3.28,0,0,0,2.12-.74A2.39,2.39,0,0,0,78.48,16.11Z"/><path class="a" d="M98.31,19.53A6.83,6.83,0,0,1,93,21.9a7.31,7.31,0,0,1-5.34-2.14A7.68,7.68,0,0,1,85.5,14a8.08,8.08,0,0,1,2.24-5.88,7,7,0,0,1,5.11-2.29,5.86,5.86,0,0,1,4.77,2.37V6.09h4.5V20.16a9.34,9.34,0,0,1-.75,3.84,6.64,6.64,0,0,1-2,2.64,9.16,9.16,0,0,1-5.88,2A12.28,12.28,0,0,1,89.8,28a10.46,10.46,0,0,1-3.29-1.67L88.26,23A7.66,7.66,0,0,0,93,24.66a5.83,5.83,0,0,0,3.92-1.23A4.86,4.86,0,0,0,98.31,19.53Zm-0.63-5.69a4.18,4.18,0,0,0-1.08-3,3.58,3.58,0,0,0-2.67-1.11,3.83,3.83,0,0,0-2.75,1.11,4,4,0,0,0-1.15,3,4.32,4.32,0,0,0,1.13,3.11,3.64,3.64,0,0,0,2.75,1.18,3.52,3.52,0,0,0,2.7-1.17A4.39,4.39,0,0,0,97.68,13.84Z"/><path class="a" d="M119.61,19.92a9,9,0,0,1-6.41,2.58,8.5,8.5,0,0,1-6.08-2.27,8,8,0,0,1-2.4-6.08,7.83,7.83,0,0,1,2.44-6.06,8.25,8.25,0,0,1,5.78-2.25,8.35,8.35,0,0,1,5.66,2,6.92,6.92,0,0,1,2.32,5.52v2.4H109.17a3.2,3.2,0,0,0,1.38,2.16,4.41,4.41,0,0,0,2.64.84,5.18,5.18,0,0,0,3.9-1.59Zm-4.32-9.57A3.41,3.41,0,0,0,113,9.57a4.05,4.05,0,0,0-2.45.81,3.1,3.1,0,0,0-1.29,2.19h7.08A3.2,3.2,0,0,0,115.29,10.35Z"/><path class="a" d="M131.91,10.08a3.41,3.41,0,0,0-3,1.43,6.48,6.48,0,0,0-1,3.77v7h-4.5V6.12h4.5V8.25a7.56,7.56,0,0,1,2.17-1.68,5.92,5.92,0,0,1,2.66-.72l0,4.23h-0.87Z"/></svg>
